<svg t="1722778490468" class="icon" viewBox="0 0 1024 1024" version="1.1" xmlns="http://www.w3.org/2000/svg"
	p-id="39891" width="200" height="200">
	<path
		d="M512.2 956.9V63.2l9.3 6.6C624 142.6 741.6 188 868.3 193.5H887v298c0 219.8-152.3 414.2-370.4 464.7l-3.6 0.8-0.8-0.1z"
		fill="#FDD23E" p-id="39892"></path>
	<path
		d="M512.2 956.9V63.2l-9.3 6.6C400.3 142.6 282.7 188 156.1 193.5h-18.7v298c0 219.8 152.3 414.2 370.4 464.7l3.6 0.8 0.8-0.1z"
		fill="#F8B62D" p-id="39893"></path>
	<path
		d="M296 491.1l149.7 159.6h0.7c5.2 10.7 16 18 28.5 18 12.4 0 23.2-7.3 28.5-18h0.4l225.1-245.9c8.3-4.9 14-14.1 14-24.7 0-15.7-12.4-28.5-27.7-28.5-11.3 0-21 7-25.3 17L475.3 603.1h-0.4c-0.7 0-1.4 0-2.1 0.1L333.6 452.9c-4.6-9.1-13.9-15.3-24.5-15.3-15.3 0-27.7 12.7-27.7 28.5 0.1 10.8 6 20.2 14.6 25z"
		fill="#FFFFFF" p-id="39894"></path>
</svg>